<svg version="1.1" xmlns="http://www.w3.org/2000/svg" style="display: block;" viewBox="0 0 2048 2048" width="1024" height="1024">
<path transform="translate(0,0)" fill="rgb(255,255,255)" d="M 775.725 2048 L -0 2048 L -0 -0 L 1002.36 0 L 1043.65 0 L 2048 0 L 2048 2048 L 1270.92 2048 L 1254.99 2048 L 1222.51 2048 L 1212.49 2048 L 1138.02 2048 L 1127.25 2048 L 1108.61 2048 L 1091.81 2048 L 954.421 2048 L 937.406 2048 L 919.191 2048 L 907.87 2048 L 832.791 2048 L 823.042 2048 L 790.753 2048 L 775.725 2048 z"/>
<path transform="translate(0,0)" fill="rgb(0,0,0)" d="M 1002.36 0 L 1043.65 0 C 1080.23 8.4317 1113.71 23.7023 1134.57 56.6812 C 1148.6 78.8783 1152.74 103.478 1151.31 129.369 C 1151.16 132.098 1148.03 157.399 1148.17 157.622 C 1148.4 157.981 1149 157.822 1149.41 157.929 C 1155.35 159.473 1158.71 161.577 1161.75 167.006 C 1168.91 179.776 1163.31 203.321 1159.1 216.614 C 1155.46 228.121 1151 242.079 1140.31 248.678 C 1138.56 249.758 1132.87 252.223 1131.85 253.622 C 1130.8 255.045 1130.17 258.504 1129.55 260.342 C 1127.92 265.175 1125.65 270.427 1125.16 275.5 C 1124.6 281.258 1125.47 287.65 1125.59 293.476 C 1125.89 308.224 1125.27 324.726 1129.27 339 C 1131.76 347.854 1132.57 356.743 1133.76 365.817 C 1134.02 367.794 1134.46 373.943 1135.61 375.511 C 1138.14 378.975 1144.28 382.483 1147.86 384.947 C 1158.78 392.456 1169.82 400.037 1181.31 406.651 L 1223.58 429.178 C 1238.96 437.087 1254.75 445.19 1271.19 450.677 C 1285.41 455.423 1301.28 459.056 1316 461.945 C 1325.66 463.841 1335.42 465.022 1344.89 467.814 C 1394.53 482.442 1439.2 524.87 1452.65 575.261 C 1457.94 595.068 1457.89 616.159 1454.91 636.28 C 1454.15 641.396 1451.34 649.316 1451.56 654.139 C 1451.66 656.123 1455.83 662.018 1457.01 664.246 L 1475.71 701.067 C 1492.2 734.074 1505.34 767.82 1511.57 804.338 C 1514.03 818.75 1516.21 833.379 1516.89 848 L 1516.9 880.837 C 1516.85 883.811 1515.87 890.853 1517.34 893.196 C 1523.2 902.536 1527.01 912.984 1532.97 922.24 L 1557.1 956.554 C 1571.85 978.611 1585.85 1002.9 1595.19 1027.79 C 1603.84 1050.85 1611.1 1074.23 1615.62 1098.47 C 1620.95 1127.06 1622.74 1156.09 1626.16 1184.92 C 1630.72 1223.43 1636.48 1263.68 1645.27 1301.47 C 1647.3 1310.2 1649.38 1319.06 1652.64 1327.41 L 1676.52 1383.72 C 1679.45 1391.1 1683.68 1400.03 1684.26 1408 C 1684.8 1415.38 1683.42 1423.04 1682.27 1430.32 L 1674.82 1470.66 C 1672.93 1481.08 1671.88 1491.94 1669.54 1502.23 C 1667.55 1510.95 1662.28 1519.21 1658.29 1527.15 C 1652.75 1538.18 1647.45 1549.54 1643.19 1561.13 C 1640.49 1568.47 1641.2 1580.74 1636 1586.14 C 1632.44 1587.49 1632.17 1587.7 1628.26 1586.7 C 1611.96 1568.85 1613.25 1538.19 1611.24 1515.61 L 1605.52 1471.49 C 1603.99 1462.22 1602.54 1452.23 1598.94 1443.5 C 1596.31 1437.09 1591.9 1431.29 1587.88 1425.71 C 1586.62 1447.05 1580.12 1473.44 1563.54 1488.36 C 1560.15 1491.41 1554.23 1495.41 1549.38 1494.64 C 1546.94 1494.25 1544.28 1493.31 1542.75 1491.24 C 1540.65 1488.38 1540.26 1483.81 1540.25 1480.38 C 1540.22 1467.95 1545.06 1455.57 1545.73 1442.97 C 1547.07 1417.89 1540.04 1394.79 1547.04 1369.74 C 1550.93 1355.78 1557.1 1343.29 1564.76 1331.02 C 1565.24 1330.25 1567.09 1327.61 1566.89 1326.7 C 1565.27 1318.96 1560.01 1309.46 1556.66 1302.24 C 1549.08 1285.91 1541.7 1269.7 1532.93 1253.95 C 1514.02 1219.96 1491.74 1188 1470.62 1155.37 C 1455.86 1132.56 1440.24 1109.36 1430.46 1083.9 C 1421.46 1060.45 1416.19 1036.48 1411.68 1011.84 C 1408.39 993.845 1407.43 973.785 1399.65 957.022 C 1393.83 944.494 1383.54 933.89 1375.28 922.933 C 1367.99 913.28 1361.5 902.864 1355.33 892.469 C 1343.44 872.455 1331.9 851 1324.15 829 C 1320.42 818.421 1318.27 806.509 1313.88 796.317 C 1306.68 818.06 1296.74 839.196 1283.38 857.879 C 1271.5 874.5 1258.93 889.194 1249.89 907.781 C 1238.53 931.135 1233.66 958.988 1229.17 984.414 L 1219.19 1052.12 C 1218.06 1063.44 1216.25 1074.57 1217.16 1086 C 1217.99 1096.32 1221.6 1106.34 1226.21 1115.52 C 1240.38 1143.73 1255.23 1171.76 1266.46 1201.32 C 1305.94 1305.34 1314.69 1418.84 1302.74 1528.85 C 1298.53 1567.58 1291.14 1606.42 1282.85 1644.48 C 1271.95 1694.6 1248.9 1743.52 1247.02 1795.5 C 1246.1 1821 1252.93 1842.62 1260.55 1866.72 C 1265.4 1882.06 1271.12 1897.38 1274.94 1913 C 1286.25 1959.14 1280.77 2002.26 1270.92 2048 L 1254.99 2048 L 1222.51 2048 L 1212.49 2048 L 1138.02 2048 L 1127.25 2048 L 1108.61 2048 L 1091.81 2048 L 954.421 2048 L 937.406 2048 L 919.191 2048 L 907.87 2048 L 832.791 2048 L 823.042 2048 L 790.753 2048 L 775.725 2048 C 764.834 2004.24 757.958 1960.64 768.361 1916.04 C 772.806 1896.99 780.149 1878.5 787.086 1860.23 C 793.898 1842.3 802.003 1822.46 801.838 1803 C 801.568 1771.29 790.065 1737.09 781.389 1706.73 L 759.5 1624.61 C 734.849 1516.28 732.198 1402.51 755.047 1293.63 C 760.875 1265.85 767.582 1238.41 777.336 1211.73 C 784.419 1192.35 792.832 1173.21 802.648 1155.05 C 810.669 1140.2 821.792 1125.12 826.697 1108.99 C 833.54 1086.49 831.329 1060.55 828.511 1037.54 C 825.035 1009.15 819.414 981.274 812.014 953.663 C 807.569 937.079 803.438 920.413 795.672 904.987 C 788.87 891.477 779.495 878.832 771.139 866.228 C 757.165 845.149 743.49 824.085 731.679 801.692 C 720.383 836.574 705.132 869.444 685.02 900.129 L 666.685 926.171 C 662.127 932.084 644.018 950.508 642.814 956.439 C 632.651 1006.49 628.02 1055.59 605.703 1102.47 C 596.396 1122.02 585.441 1140.51 574.305 1159.05 C 545.614 1206.82 514.464 1252.7 488.709 1302.27 C 486.117 1307.26 483.578 1312.25 481.438 1317.46 C 480.954 1318.63 479.274 1321.92 479.246 1323.06 C 479.197 1325.06 481.399 1329.1 482.264 1330.97 L 490.049 1347.83 C 495.352 1359.81 499.163 1371.77 501.631 1384.62 C 505.806 1406.37 500.389 1429.83 500.945 1451.89 C 501.142 1459.68 503.536 1466.87 504.675 1474.5 C 505.094 1477.31 504.294 1480.24 502.5 1482.46 C 500.65 1484.76 497.885 1486 495 1486.26 C 488.745 1486.83 482.65 1484.09 478.127 1479.91 C 462.887 1465.84 463.105 1438.14 462.569 1418.91 C 454.145 1429.28 448.889 1441.4 444.689 1453.96 C 439.962 1468.1 436.492 1482.74 435.407 1497.64 C 433.771 1520.13 436.469 1544.11 429.98 1565.98 C 427.914 1572.94 424.492 1583.22 417.543 1586.5 C 414.227 1588.06 411.921 1588.03 408.5 1586.98 C 398.85 1579 402.256 1556.18 400.513 1544.34 C 400.122 1541.68 396.708 1538.37 395.247 1535.94 C 392.781 1531.84 390.696 1527.44 388.559 1523.15 C 383.263 1512.55 379.343 1500.74 375.784 1489.46 C 370.078 1471.38 367.659 1452.97 363.889 1434.5 C 362.761 1428.97 360.161 1423.91 360.765 1418.14 C 363.554 1391.48 378.992 1362.84 390.948 1339.11 C 394.737 1331.59 400.366 1323.16 402.403 1315.08 C 407.595 1294.46 409.361 1271.66 412.349 1250.61 L 429.951 1120.94 C 434.085 1089.48 437.521 1057.38 448.675 1027.47 C 463.475 987.771 491.412 957.17 514.551 922.574 C 521.832 911.688 527.181 900.104 533.5 888.72 C 538.394 879.903 535.611 867.167 535.36 857.219 C 535.181 850.108 535.581 842.94 536.055 835.848 C 537.419 815.419 540.411 795.333 545.314 775.45 C 554.083 739.883 569.165 705.575 585.286 672.792 C 587.725 667.832 593.712 659.065 594.171 653.924 C 594.688 648.122 592.494 639.723 591.938 633.638 C 590.398 616.775 589.27 597.8 591.57 580.969 C 597.882 534.774 633.238 504.05 672.056 482.853 C 684.909 475.835 698.47 469.033 712.646 465.115 C 735.751 458.73 759.176 458.848 782 450.132 C 806.636 440.725 830.259 427.575 853.064 414.382 C 873.52 402.549 893.848 390.496 912.741 376.258 C 914.318 359.924 917.809 344.209 920.027 328.039 C 921.509 317.236 922.028 305.931 922.56 295.035 C 922.861 288.888 923.596 282.076 923.221 275.972 C 922.919 271.071 919.689 264.86 918.105 260.184 C 917.338 257.919 916.202 252.206 914.834 250.49 C 914.4 249.947 911.224 248.776 910.48 248.407 C 905.06 245.719 900.903 242.962 898.092 237.394 C 890.798 222.948 886.584 205.798 884.504 189.829 C 883.575 182.699 882.855 174.917 885.232 168 C 887.167 162.368 891.231 159.941 896.375 157.466 C 896.768 157.277 897.346 157.29 897.56 156.909 C 897.86 156.374 896.658 150.041 896.486 148.679 L 894.565 126.908 C 893.284 103.351 897.7 81.232 909.837 60.8203 C 931.275 24.7645 963.495 9.98895 1002.36 0 z"/>
<path transform="translate(0,0)" fill="rgb(255,255,255)" d="M 896.913 171.5 L 899.997 171.5 C 905.517 182.486 901.676 199.51 903.186 211.735 C 904.19 219.86 906.794 228.12 908.852 236.052 C 904.06 227.37 900.553 218.993 898.174 209.338 C 895.804 199.726 891.875 179.863 896.913 171.5 z"/>
<path transform="translate(0,0)" fill="rgb(255,255,255)" d="M 1147.05 171.5 L 1148.91 171.289 C 1151 172.735 1151.72 173.092 1152.44 175.704 C 1157.32 193.309 1148.29 218.735 1140.5 234.309 L 1139.1 236.166 L 1138.38 236 L 1144.24 208 C 1145.44 199.174 1141.45 177.836 1147.05 171.5 z"/>
<path transform="translate(0,0)" fill="rgb(255,255,255)" d="M 1250.49 1702.5 C 1251.26 1706.49 1249.09 1711.3 1248.01 1715.2 L 1241.96 1739.15 C 1238.56 1754.41 1235.4 1769.97 1233.59 1785.5 C 1231.86 1800.25 1232.68 1817.49 1227.67 1831.5 C 1226.3 1830.63 1226.45 1829.29 1226.07 1827.77 L 1220.75 1798.56 C 1219.95 1794.33 1218.23 1788.61 1218.65 1784.43 C 1219.22 1778.8 1222.11 1772.42 1223.91 1767 C 1231.33 1744.65 1239.77 1723.47 1250.49 1702.5 z"/>
<path transform="translate(0,0)" fill="rgb(255,255,255)" d="M 792.363 1684.5 L 793.416 1685.44 C 796.445 1689.87 798.233 1697.97 800.485 1703.1 L 814.186 1731.59 C 819.16 1743.1 822.725 1754.97 826.477 1766.91 C 827.647 1770.64 830.32 1774.91 829.395 1778.84 L 821.019 1821.23 C 820.283 1825.13 820.014 1828.99 818.872 1832.81 C 816.713 1802.47 813.993 1773.56 807.258 1743.78 C 802.786 1724 795.955 1704.38 792.363 1684.5 z"/>
<path transform="translate(0,0)" fill="rgb(255,255,255)" d="M 1133.14 824.472 C 1146.88 833.171 1162.52 836.545 1178.41 838.714 C 1169.38 851.067 1156.98 861.689 1145.57 871.823 L 1135.85 879.188 C 1125.99 874.777 1117.24 869.482 1108.48 863.176 C 1120.19 851.229 1127.18 839.982 1133.14 824.472 z"/>
<path transform="translate(0,0)" fill="rgb(255,255,255)" d="M 916.307 823.773 C 922.203 839.875 928.444 849.997 940.259 862.611 C 934.002 869.946 921.261 875.588 912.36 878.969 C 907.379 876.885 903.065 873.082 898.758 869.863 L 865.02 837.211 C 883.803 837.195 900.037 833.349 916.307 823.773 z"/>
<path transform="translate(0,0)" fill="rgb(255,255,255)" d="M 1428.53 1018.1 C 1437.82 1027.91 1447.36 1038.17 1455.31 1049.1 C 1484.74 1089.57 1502.56 1137.71 1510.19 1186.92 C 1501.92 1176.7 1494.84 1164.54 1487.53 1153.58 C 1472.27 1130.71 1457.16 1107.24 1446.59 1081.77 C 1438.05 1061.19 1432.97 1039.85 1428.53 1018.1 z"/>
<path transform="translate(0,0)" fill="rgb(255,255,255)" d="M 617.808 1015.56 C 610.36 1055.49 595.741 1092.51 576.03 1127.94 L 533.753 1196.09 C 535.592 1181.87 539.284 1167.83 542.605 1153.9 C 547.549 1133.15 553.343 1112.96 562.656 1093.69 C 576.742 1064.53 597.091 1040.14 617.808 1015.56 z"/>
<path transform="translate(0,0)" fill="rgb(255,255,255)" d="M 1109.6 292.695 L 1111.48 317.608 C 1112.19 324.753 1114.23 334.001 1113.15 341 C 1112.21 347.072 1108.88 354.06 1107.01 360 L 1080.37 436.397 C 1076.27 447.499 1073.61 459.768 1068.95 470.5 L 1066.09 471.5 L 1064.54 470.5 L 1080.98 312.76 C 1092.27 307.861 1101.05 301.466 1109.6 292.695 z"/>
<path transform="translate(0,0)" fill="rgb(255,255,255)" d="M 938.094 292.96 C 941.8 297.471 945.902 301.156 950.683 304.5 C 953.916 306.761 967.353 312.576 968.337 314.968 C 969.29 317.286 969.362 321.42 969.738 324.018 L 972.524 345.208 C 976.789 380.515 981.574 416.328 982.983 451.881 C 983.195 457.231 984.631 466.624 982.725 471.5 L 980.5 471.375 L 978.271 469.866 C 975.491 459.05 972.163 448.518 968.362 438.014 L 941.606 364.306 C 938.677 355.696 932.643 343.381 933.955 334.465 L 938.094 292.96 z"/>
<path transform="translate(0,0)" fill="rgb(255,255,255)" d="M 1089.24 988.5 L 1091.69 988.216 L 1091.77 989.452 C 1092.1 996.387 1089.82 1005.22 1088.07 1012 C 1078.38 1049.56 1056.21 1082.11 1030.51 1110.5 L 1029.64 1110.48 C 1028.41 1107.46 1029.02 1103.52 1029.05 1100.27 L 1029.23 1076.63 L 1029.31 994.495 C 1041.02 995.433 1053.01 997.121 1064.74 995.668 C 1073.31 994.607 1081.28 991.716 1089.24 988.5 z"/>
<path transform="translate(0,0)" fill="rgb(255,255,255)" d="M 955.984 986.416 C 977.032 997.041 994.776 996.38 1017.59 994.073 L 1018.09 1109.5 L 1017.7 1111 L 1016.86 1111.29 C 984.445 1074.45 959.959 1036.4 955.984 986.416 z"/>
<path transform="translate(0,0)" fill="rgb(255,255,255)" d="M 1222.51 2048 C 1229.47 2013.36 1234.45 1977.65 1235.42 1942.3 L 1234.89 1886 C 1235 1871.29 1236.26 1856.52 1237.81 1841.91 C 1245 1868.03 1254.36 1894.06 1260.21 1920.47 C 1267.32 1952.52 1266.04 1985.96 1260.99 2018.21 L 1254.99 2048 L 1222.51 2048 z"/>
<path transform="translate(0,0)" fill="rgb(255,255,255)" d="M 790.753 2048 C 780.004 2003.47 773.42 1955.38 785.5 1910.46 C 791.607 1887.74 800.642 1865.78 807.376 1843.2 C 813.268 1876.54 809.076 1909.13 809.834 1942.59 C 810.641 1978.24 816.439 2013.05 823.042 2048 L 790.753 2048 z"/>
<path transform="translate(0,0)" fill="rgb(255,255,255)" d="M 1216.25 1516.5 C 1217.37 1517.09 1218.12 1519.3 1218.66 1520.42 C 1238.79 1562.22 1246.11 1613.15 1243.96 1659.21 C 1243.34 1672.6 1242.37 1687.42 1239.55 1700.5 C 1237.77 1708.77 1232.98 1717.2 1229.72 1725.01 L 1218.88 1753.85 L 1216.25 1764.73 C 1213.57 1747.5 1210.9 1725.16 1201.24 1710.32 C 1200.12 1708.61 1206.09 1687.09 1206.76 1684 C 1218.59 1629.79 1222.35 1571.7 1216.25 1516.5 z"/>
<path transform="translate(0,0)" fill="rgb(255,255,255)" d="M 830.027 1515.05 L 827.897 1561.2 C 827.578 1591.28 830.129 1621.3 833.945 1651.12 C 835.399 1662.49 837.441 1673.82 840.082 1684.97 L 844.444 1702.48 C 845 1704.42 846.882 1708.55 846.865 1710.4 C 846.828 1714.48 841.71 1723.41 840.289 1727.71 C 836.964 1737.77 835.154 1748.15 833.278 1758.56 L 830.093 1747.79 C 825.635 1732.52 818.178 1718.62 811.53 1704.25 C 806.589 1693.57 801.411 1681.87 799.561 1670.18 C 797.105 1654.65 798.663 1636.98 800.981 1621.5 C 806.465 1584.89 817.288 1549.73 830.027 1515.05 z"/>
<path transform="translate(0,0)" fill="rgb(255,255,255)" d="M 1108.61 2048 C 1102.86 2025.07 1099.87 2002.62 1098.66 1979.03 C 1097.83 1962.85 1097.7 1945.95 1100.74 1930 C 1103.47 1915.64 1108.43 1902.05 1113.38 1888.33 C 1123.63 1859.96 1135.14 1834.58 1154 1810.76 C 1155.34 1814.84 1141.69 1886.45 1140.04 1897.29 L 1131.36 1960.85 C 1127.89 1990.09 1126.86 2018.56 1127.25 2048 L 1108.61 2048 z"/>
<path transform="translate(0,0)" fill="rgb(255,255,255)" d="M 919.191 2048 C 919.941 2010.82 917.949 1974.43 912.959 1937.59 L 891.771 1807.66 C 897.127 1815.84 903.025 1823.73 907.936 1832.18 C 920.198 1853.27 929.474 1875.43 937.32 1898.5 C 942.342 1913.27 946.795 1927.23 948.477 1942.83 C 951.624 1972 946.861 2006.06 940.835 2034.59 L 937.406 2048 L 919.191 2048 z"/>
<path transform="translate(0,0)" fill="rgb(255,255,255)" d="M 928.633 477.426 C 933.613 476.735 939.271 477.077 944.322 476.978 C 952.373 476.821 960.936 476.326 968.891 477.542 C 986.647 480.258 1003.96 490.648 1018.84 500.155 L 1018.94 558.027 C 1003.53 546.171 987.509 534.983 970.42 525.697 C 961.386 520.922 952.23 516.732 942.213 514.467 C 930.767 511.879 918.654 511.634 907.045 509.769 C 886.811 506.519 866.484 500.682 848.174 491.396 L 848.869 490.313 C 850.942 487.922 858.716 480.398 861.389 479.31 C 862.68 478.784 867.376 479.276 869.082 479.265 L 895.804 478.982 L 928.633 477.426 z"/>
<path transform="translate(0,0)" fill="rgb(255,255,255)" d="M 1082.66 477.247 L 1184.75 479.576 C 1190.24 483.703 1195.09 487.748 1199.69 492.868 C 1182.37 500.66 1163.7 506.429 1144.97 509.613 L 1104.37 514.688 C 1076.63 522.947 1050.44 538.321 1028.6 557.318 C 1027.27 553.471 1028.12 546.586 1028.06 542.422 L 1027.5 501.225 C 1045.58 489.436 1061.15 481.193 1082.66 477.247 z"/>
<path transform="translate(0,0)" fill="rgb(255,255,255)" d="M 1016.59 746.086 L 1016.65 875.226 C 1005.66 875.292 993.671 875.948 982.91 873.56 C 968.866 870.444 958.467 865.466 947.188 856.562 L 944.704 854.002 C 935.325 844.098 924.117 828.132 924.959 814 C 925.089 811.803 925.545 807.992 927.372 806.5 C 929.173 805.029 932.96 803.743 935.136 802.567 L 950.77 793.385 C 974.052 778.867 995.918 764.249 1016.59 746.086 z"/>
<path transform="translate(0,0)" fill="rgb(255,255,255)" d="M 930.373 357.74 L 968.882 469.904 L 783.75 468.292 L 776.059 468.499 C 785.182 465.043 794.521 462.03 803.445 458.084 C 820.866 450.382 837.896 440.725 854.571 431.524 C 875.661 419.887 895.819 408.11 914.244 392.451 C 914.314 402.937 913.823 414.254 916.178 424.5 L 917.5 425.017 C 926.038 403.962 925.853 379.839 930.373 357.74 z"/>
<path transform="translate(0,0)" fill="rgb(255,255,255)" d="M 1080.94 716.147 C 1087.87 719.371 1096.88 721.303 1104.35 723.005 C 1139.95 731.116 1172.85 728.718 1208.36 722.375 L 1208.43 723.201 C 1193 748.308 1170.94 767.845 1146.86 784.344 L 1124.24 797.292 C 1117.48 795.182 1110.2 789.527 1104.05 785.844 L 1051.72 751.731 C 1043.82 746.095 1035.41 740.716 1028.48 733.898 C 1026.58 732.03 1027.52 722.02 1027.51 718.897 C 1030.33 717.922 1034.32 718.7 1037.31 718.85 C 1045.06 719.236 1052.93 719.798 1060.69 719.511 C 1067.64 719.253 1074.23 717.873 1080.94 716.147 z"/>
<path transform="translate(0,0)" fill="rgb(255,255,255)" d="M 966.224 717.057 C 971.494 716.642 977.997 718.707 983.404 719.202 C 991.529 719.947 999.225 719.432 1007.32 719.071 C 1010.72 718.919 1014.96 718.668 1017.61 721.096 L 1017.47 734.028 C 988.151 757.722 957.584 780.059 924.27 797.943 C 914.791 795.133 903.755 787.856 895.5 782.51 C 871.285 765.113 850.768 743.474 832.872 719.727 C 845.766 722.493 858.625 725.579 871.754 727.018 C 903.64 730.514 935.768 726.932 966.224 717.057 z"/>
<path transform="translate(0,0)" fill="rgb(255,255,255)" d="M 1117.32 353.924 C 1120.1 366.256 1120.64 379.23 1122.54 391.736 C 1124.34 403.595 1127.46 414.976 1131.68 426.189 C 1133.86 415.525 1133.23 404.175 1133.14 393.335 C 1149.54 404.399 1165.59 415.529 1182.85 425.277 L 1238.01 453.016 C 1244.65 456.293 1251.3 459.547 1258.24 462.146 C 1263.57 464.144 1273.47 465.087 1277.37 468.5 L 1272.25 468.959 L 1078.86 468.963 L 1117.32 353.924 z"/>
<path transform="translate(0,0)" fill="rgb(255,255,255)" d="M 1027.06 744.43 C 1042.47 757.04 1058.29 769.174 1075.21 779.708 L 1123.95 808.503 L 1124.2 817.003 C 1124.18 831.552 1112.99 844.954 1103.16 854.645 C 1080.08 873.895 1056.82 876.769 1027.68 874.891 L 1027.06 744.43 z"/>
<path transform="translate(0,0)" fill="rgb(255,255,255)" d="M 948.145 869.586 C 961.692 876.714 974.837 882.548 990.177 884.408 C 998.794 885.453 1007.85 885.082 1016.54 885.12 L 1017.08 984.789 L 989.157 986.497 C 974.413 985.735 961.578 980.794 950.588 970.811 C 927.021 949.402 917.868 917.374 916.467 886.55 C 928.369 881.962 937.833 877.158 948.145 869.586 z"/>
<path transform="translate(0,0)" fill="rgb(255,255,255)" d="M 1100.38 869.472 C 1111.75 875.441 1120.89 882.925 1133.26 887.334 C 1132.19 912.889 1125.55 939.083 1109.54 959.52 C 1096.74 975.862 1081.85 984.005 1061.25 986.649 C 1050.68 987.349 1039.78 985.784 1029.3 984.537 L 1029.45 885.364 C 1056.59 886.502 1076.64 883.424 1100.38 869.472 z"/>
<path transform="translate(0,0)" fill="rgb(255,255,255)" d="M 736.408 659.911 C 753.748 677.815 773.32 693.308 795.515 704.771 C 800.554 707.373 805.667 709.847 810.954 711.908 C 812.805 712.629 816.624 713.5 818.125 714.574 C 821.594 717.057 826.08 725.767 828.943 729.664 C 837.126 740.799 846.23 751.738 856.144 761.345 C 868.022 772.856 880.398 783.34 894.306 792.341 C 899.89 795.955 908.983 799.199 913.573 803.431 C 915.845 805.525 914.789 808.719 914.614 811.5 C 912.281 814.67 909.042 816.395 905.758 818.427 C 894.001 823.802 880.182 829.25 867 827.931 C 833.293 824.559 785.485 764.684 766.201 737.989 C 757.957 726.577 751.141 713.764 742.205 702.921 C 740.303 700.613 737.19 665.855 736.408 659.911 z"/>
<path transform="translate(0,0)" fill="rgb(255,255,255)" d="M 1068.7 316.5 L 1070.19 318.031 L 1055.22 474.383 L 1023.59 490.765 L 993.264 474.684 L 983.649 354.761 L 978.528 316.546 L 1016.96 321.152 L 1017.1 402.207 C 1017.17 416.386 1016.25 431.48 1018.01 445.5 C 1020.42 448.639 1020.94 448.72 1024.5 449.973 C 1027.79 449.33 1028.23 449.118 1030.71 446.862 C 1033.06 434.067 1031.28 418.533 1031.23 405.394 L 1030.99 320.941 L 1068.7 316.5 z"/>
<path transform="translate(0,0)" fill="rgb(255,255,255)" d="M 1311.61 655.133 L 1303.86 711.463 C 1278.61 743.906 1257.32 778.655 1225.79 805.757 C 1216.02 814.158 1205.51 822.254 1193.58 827.369 C 1191.29 828.348 1187.16 830.578 1184.79 830.845 C 1183.11 831.035 1179.1 829.67 1177.29 829.3 C 1166.6 827.113 1156.92 824.558 1146.75 820.505 L 1135.11 815.348 L 1132.46 804.042 C 1160.35 788.122 1185.78 769.491 1205.49 743.761 C 1209.41 738.635 1213.07 733.351 1216.44 727.845 C 1217.91 725.449 1219.98 720.561 1221.93 718.74 C 1223.66 717.114 1229.55 715.374 1231.96 714.353 L 1251.49 704.999 C 1275.73 692.262 1293.43 675.198 1311.61 655.133 z"/>
<path transform="translate(0,0)" fill="rgb(255,255,255)" d="M 1507.43 910.34 C 1523.14 938.248 1544.19 962.145 1560.01 989.954 C 1578.66 1022.72 1592.19 1058.98 1599.7 1095.89 C 1604.84 1121.14 1606.29 1146.94 1609.01 1172.5 L 1616.89 1229.54 L 1587.37 1182.93 C 1561.83 1141.43 1537.68 1098.46 1520.94 1052.6 C 1515.69 1038.22 1510.42 1023.57 1508.21 1008.35 C 1503.5 975.86 1505.95 942.978 1507.43 910.34 z"/>
<path transform="translate(0,0)" fill="rgb(255,255,255)" d="M 541.612 905.817 C 543.903 920.923 550.062 1012.68 545.475 1020.87 C 506.93 1089.75 477.468 1164.43 432.53 1229.52 C 431.226 1231.32 432.038 1230.71 430.213 1231.5 L 439.48 1166.99 C 444.434 1126.28 446.455 1082.83 458.831 1043.67 C 463.562 1028.7 470.596 1014.19 478.318 1000.54 C 491.565 977.121 508.752 956.54 524.017 934.5 C 530.396 925.291 535.981 915.497 541.612 905.817 z"/>
<path transform="translate(0,0)" fill="rgb(255,255,255)" d="M 1002.23 1358.5 C 1004.27 1358.02 1003.19 1358.17 1005.5 1358.14 C 1006.18 1380.26 1003.43 1403.14 1001.96 1425.25 L 994.269 1516.61 C 990.987 1549.75 987.155 1583.25 978.443 1615.47 C 970.186 1646.01 956.403 1674.26 943.402 1702.95 C 935.841 1719.63 927.848 1735.78 923.583 1753.72 C 917.484 1779.38 918.155 1808.11 920.796 1834.23 L 906.188 1811.78 C 901.263 1805.18 896.35 1798.53 892.543 1791.2 C 891.879 1789.93 890.017 1787.05 889.8 1785.76 C 889.435 1783.59 899.936 1768.48 901.965 1765.25 C 913.676 1746.66 924.597 1728.38 931.801 1707.48 C 939.647 1684.72 943.324 1662.51 944.637 1638.5 C 946.318 1607.79 943.039 1575.65 941.375 1544.91 L 931.868 1364.79 C 955.59 1366.97 979.57 1366.51 1002.23 1358.5 z"/>
<path transform="translate(0,0)" fill="rgb(255,255,255)" d="M 1042.49 1356.53 C 1065.35 1366.97 1091.61 1367.42 1116.23 1364.8 C 1116.22 1415.43 1108.66 1465.51 1104.52 1515.88 C 1101.32 1554.73 1100.66 1593.48 1104.22 1632.33 C 1106.74 1659.9 1111.01 1686.25 1120.34 1712.43 C 1129.64 1738.5 1145.82 1760.34 1156.9 1785.44 C 1155.06 1792.18 1149.16 1799.12 1145.09 1804.71 L 1126.1 1833.66 C 1128.26 1806.39 1129.39 1774.65 1123.56 1747.94 C 1118.12 1723.01 1104.01 1699.39 1093.78 1676.07 C 1078.87 1642.08 1065.04 1604.65 1056.88 1568.42 C 1046.72 1523.28 1046.43 1475.29 1045.15 1429.21 L 1042.49 1356.53 z"/>
<path transform="translate(0,0)" fill="rgb(255,255,255)" d="M 1138.02 2048 C 1136.87 1975.41 1150.02 1904.8 1160.91 1833.3 C 1162.58 1822.3 1164.58 1811.25 1165.51 1800.16 C 1165.82 1796.46 1164.76 1789.76 1165.54 1786.67 C 1167.26 1779.76 1174.56 1770.06 1178.06 1763.42 C 1185.07 1750.13 1191.52 1736.66 1196.22 1722.37 C 1203.15 1738.77 1204.87 1756.43 1206.83 1773.97 L 1213.34 1826.1 C 1216.54 1847.57 1221.47 1869.03 1223.83 1890.57 C 1225.2 1903.08 1225.91 1915.89 1225.67 1928.47 C 1225.17 1954.9 1223.28 1981.75 1219.42 2007.91 L 1212.49 2048 L 1138.02 2048 z"/>
<path transform="translate(0,0)" fill="rgb(255,255,255)" d="M 832.791 2048 C 823.512 1998.07 815.573 1943.39 821.175 1892.55 C 823.771 1868.99 829.866 1845.53 833.343 1822.03 C 838.208 1789.15 841.597 1757.05 851.465 1725.1 C 858.705 1740.12 867.904 1755.58 872.841 1771.5 C 879.299 1792.33 882.052 1815.3 885.921 1836.81 C 898.387 1906.13 911.638 1977.31 907.87 2048 L 832.791 2048 z"/>
<path transform="translate(0,0)" fill="rgb(255,255,255)" d="M 839.604 497.476 C 859.91 508.581 881.794 515.342 904.712 518.607 C 916.826 520.333 929.281 521.235 941.125 524.422 C 969.037 531.932 996.716 551.749 1018.69 570.265 L 1018.21 632.237 C 1018.06 645.168 1018.76 659.034 1016.66 671.79 C 1014.93 682.239 1010.59 692.056 1005.96 701.488 C 1004.92 703.721 1003.78 707.003 1001.91 708.632 C 999.367 710.845 989.728 710.855 986.344 710.545 C 972.946 709.318 962.672 700.95 953.057 692.312 C 933.636 674.863 916.587 653.351 904.5 630.198 C 892.113 606.469 883.074 581.291 870.179 557.787 C 859.657 538.607 846.465 521.753 832.702 504.861 L 839.604 497.476 z"/>
<path transform="translate(0,0)" fill="rgb(255,255,255)" d="M 1207.42 500.871 C 1209.99 503.209 1212.25 506.137 1214.58 508.73 C 1197.31 528.041 1182.22 550.221 1170.49 573.331 L 1143.89 629.315 C 1130.71 654.199 1099.22 700.404 1070.51 708.922 L 1069.05 709.333 C 1062.49 711.257 1054.81 711.489 1048.02 710.805 C 1044.31 710.431 1044.42 710.129 1042.08 707.106 C 1036.8 697.577 1032.43 687.54 1030.17 676.842 L 1029.79 675 C 1025.96 657.375 1027.6 637.488 1027.59 619.426 C 1027.58 603.189 1026.74 586.382 1028.12 570.226 C 1038.38 559.575 1050.44 551.541 1063.15 544.073 C 1076.98 535.944 1090.96 528.545 1106.51 524.242 C 1116.68 521.424 1127.73 521.331 1138.18 519.781 C 1161.98 516.254 1185.23 510.169 1207.42 500.871 z"/>
<path transform="translate(0,0)" fill="rgb(255,255,255)" d="M 1219.48 515.574 L 1261.17 566.301 L 1310.24 619.858 C 1312.26 621.994 1320.93 629.896 1321.03 632.208 C 1306.37 647.468 1291.98 663.814 1275.63 677.283 C 1250.59 697.92 1223.22 708.828 1191.75 715.438 C 1157.73 721.325 1123.4 720.322 1090.43 709.493 C 1119.93 685.663 1142.55 656.194 1158.47 621.773 C 1166.24 604.964 1172.97 587.647 1181.71 571.292 C 1192.48 551.125 1205.69 533.675 1219.48 515.574 z"/>
<path transform="translate(0,0)" fill="rgb(255,255,255)" d="M 826.995 510.692 C 843.28 529.983 857.819 552.303 868.982 574.896 L 893.875 630.705 C 908.74 661.349 932.267 688.658 959.186 709.259 L 958.776 709.773 C 925.611 719.377 894.122 720.274 860.137 715.717 C 804.552 706.316 757.727 676.303 724.114 631.053 C 762.535 593.686 795.839 554.3 826.995 510.692 z"/>
<path transform="translate(0,0)" fill="rgb(255,255,255)" d="M 732.63 477.332 C 747.984 475.957 764.701 477.712 780.183 477.917 C 802.766 478.217 825.043 477.304 847.624 478.913 C 823.927 492.98 809.439 519.996 792.918 541.321 L 759.68 580.995 C 733.882 610.163 705.132 637.096 674.369 660.969 C 653.35 676.563 633.104 688.962 619.342 712.006 C 617.561 708.453 617.187 703.169 616.418 699.164 L 611.241 668.523 L 606.64 623.006 C 604.781 595.205 605.146 567.061 622.82 543.953 C 630.165 534.349 639.711 526.402 649.128 518.909 C 672.746 500.114 702.176 481.537 732.63 477.332 z"/>
<path transform="translate(0,0)" fill="rgb(255,255,255)" d="M 1300.53 475.42 L 1314.02 476.623 C 1355.48 482.703 1391.39 502.831 1416.31 536.842 C 1427.87 552.63 1436.82 570.445 1440.04 589.901 C 1445.05 620.161 1436.91 649.626 1430.73 679 L 1423.96 719.037 C 1412.11 702.908 1400.32 687.895 1386.13 673.718 C 1365.53 654.458 1342.01 638.58 1322.18 618.519 C 1278.36 574.183 1241.31 524.59 1199.31 478.745 C 1222.7 479.25 1246.53 480.53 1269.89 479.084 C 1280.16 478.449 1290.28 476.404 1300.53 475.42 z"/>
<path transform="translate(0,0)" fill="rgb(255,255,255)" d="M 1303.6 727.162 L 1306.62 760.121 C 1290.71 785.703 1274.72 809.004 1253.84 830.833 C 1238.93 846.43 1222.42 860.686 1208.47 877.159 C 1245.31 854.508 1273.43 825.895 1299.57 791.719 C 1288.21 834.298 1256.44 868.712 1224.41 897.444 C 1210.65 909.796 1195.79 921.815 1183.85 936 L 1184.17 937.652 C 1198.25 936.583 1228.84 907.586 1238.24 896.846 C 1234.22 905.799 1230.02 914.976 1227.04 924.341 L 1221.31 945.646 C 1219.95 951.599 1219.1 958.246 1215.79 963.491 C 1209.11 974.058 1196.74 984.432 1187.5 992.897 L 1167.04 1009.95 C 1161.92 1013.98 1153.64 1018.69 1151.32 1024.99 L 1138.69 1053.62 C 1128.01 1076.09 1114.17 1098.86 1097.16 1117.11 C 1084.84 1130.33 1070.93 1142.82 1059.87 1157.09 C 1047.05 1173.64 1039.95 1192.23 1029.13 1209.87 L 1029.34 1145.36 L 1029.22 1129.4 C 1029.21 1128.37 1028.88 1125.42 1029.18 1124.57 C 1029.76 1122.86 1047.16 1105.7 1049.21 1103.28 C 1061.47 1088.86 1072.41 1072.43 1080.71 1055.41 C 1087.14 1042.25 1093.3 1028.82 1096.85 1014.55 C 1098.7 1007.15 1099.95 999.637 1100.91 992.072 C 1101.22 989.643 1101.18 983.45 1102.2 981.471 C 1103.93 978.121 1109.55 973.531 1112.22 970.569 C 1122.44 959.238 1130.31 945.507 1135.21 931.049 C 1137.69 923.744 1139.47 916.152 1140.45 908.5 L 1141.7 893.161 C 1141.8 891.766 1141.61 888.001 1142.14 886.822 C 1143.45 883.948 1152.54 878.063 1155.51 875.46 L 1177.46 854.608 C 1180.28 851.644 1182.8 848.562 1185.2 845.239 C 1186.12 843.955 1187.73 840.773 1188.9 839.884 C 1192.43 837.191 1199.33 835.275 1203.5 832.997 C 1216.79 825.73 1229.3 815.862 1240.2 805.373 C 1264.56 781.937 1284.88 755.197 1303.6 727.162 z"/>
<path transform="translate(0,0)" fill="rgb(255,255,255)" d="M 743.04 720.284 L 761.707 747.267 C 774.479 764.705 788.497 780.922 803.692 796.286 C 818.094 810.847 833.294 824.529 851.739 833.794 C 853.878 834.869 855.646 838.869 857.06 840.957 C 860.044 845.36 863.701 849.396 867.273 853.327 C 878.314 865.476 891.923 877.154 905.661 886.233 C 906.041 886.484 906.533 886.616 906.806 886.982 C 907.113 887.393 907.24 891.502 907.308 892.178 L 909.614 910.439 C 910.87 918.401 912.586 926.126 915.457 933.673 C 919.723 944.889 925.892 956.137 933.152 965.714 C 935.828 969.244 945.227 977.304 946.201 981.037 C 947.069 984.365 946.649 989.175 946.864 992.666 C 947.257 999.078 948.287 1005.32 949.684 1011.59 C 959.492 1055.58 985.844 1094.76 1017.87 1125.7 L 1018.08 1187.14 C 1018.05 1193.44 1019.42 1203.46 1017.22 1209.16 C 1008.39 1186.35 997.829 1166.19 981.111 1148.12 C 966.029 1131.81 948.796 1117.34 935.388 1099.53 C 916.753 1074.79 905.495 1047.03 891.445 1019.77 C 873.128 1007.26 856.195 991.281 842.213 974.061 C 838.184 969.1 833.022 963.327 830.474 957.419 C 827.783 951.178 826.135 943.847 824.091 937.32 C 820.04 924.381 815.789 911.376 810.384 898.935 C 828.494 914.102 844.011 929.785 865.922 939.589 C 852.04 924.277 836.32 911.062 821.444 896.802 C 796.362 872.76 775.343 846.87 757.5 817.045 C 748.688 802.315 740.276 786.345 737.033 769.421 C 743.083 777.821 747.579 787.524 753.569 796.087 C 766.809 815.017 782.058 833.148 799.443 848.398 C 815.918 862.85 833.881 874.64 852.271 886.435 C 847.606 879.254 837.527 872.503 831.007 866.67 L 798.005 835.493 C 777.391 814.415 761.122 791.988 746.682 766.339 C 745.205 763.714 741.305 758.2 741.139 755.437 C 740.881 751.137 741.963 745.816 742.309 741.435 L 743.04 720.284 z"/>
<path transform="translate(0,0)" fill="rgb(255,255,255)" d="M 625.209 967.5 L 625.611 967.907 C 627.259 973.915 623.797 986.033 622.505 992.419 C 622.074 994.547 621.799 996.49 620.5 998.292 C 614.327 1006.85 606.415 1014.87 599.616 1023 C 584.273 1041.34 569.65 1060.8 558.239 1081.86 C 541.219 1113.27 533.477 1149.56 526.479 1184.31 C 524.327 1195 523.617 1207.85 519.656 1217.89 C 516.348 1226.28 510.246 1234.68 505.721 1242.57 L 483.14 1284.33 C 476.985 1296.14 470.223 1308.74 466.777 1321.63 C 464.954 1328.44 471.017 1337.46 473.709 1343.78 C 477.043 1351.61 480.297 1359.51 482.983 1367.59 C 486.777 1379.01 488.83 1391.35 488.936 1403.38 C 489.06 1417.5 487.002 1431.86 488.349 1445.95 C 489.112 1453.93 495.893 1469.52 493.5 1476.36 C 491.406 1476.29 490.077 1475.85 488.352 1474.71 C 470.655 1462.99 475.854 1434.06 472.085 1416 C 471.278 1412.13 470.427 1407.75 466.809 1405.58 C 464.801 1404.37 461.21 1404.51 458.988 1405.3 C 452.328 1407.69 447.219 1416.73 443.723 1422.53 C 433.646 1439.24 426.581 1459.27 423.865 1478.59 C 420.785 1500.51 421.97 1522.97 420.138 1545 C 419.298 1555.1 418.771 1565.83 414.38 1575.12 L 411.029 1480.67 L 413.852 1434 C 413.525 1431.05 411.781 1430.17 409.697 1428.38 L 407 1428.87 C 402.946 1433.28 402.996 1440.04 402.326 1445.75 C 400.202 1463.87 401.521 1481.43 400.545 1499.5 C 399.052 1496.73 398.84 1490.6 398.36 1487.31 C 395.41 1467.13 394.953 1447.84 395.006 1427.5 C 393.773 1425.26 393.804 1424.9 391.5 1423.89 C 388.018 1424.69 387.683 1424.94 385.173 1427.5 C 383.701 1444.15 384.6 1461.22 387.135 1477.73 C 388.159 1484.4 390.373 1491.14 390.778 1497.83 C 387.18 1491.08 385.379 1482.1 383.692 1474.61 C 379.511 1456.04 377.531 1437.26 372.325 1418.92 C 380.996 1388.92 396.169 1361.78 408.517 1333.31 C 410.873 1327.87 413.928 1322.71 415.822 1317.09 C 421.102 1301.4 422.796 1283.02 425.282 1266.65 C 425.883 1262.7 425.982 1254.34 427.765 1251 C 432.267 1242.57 439.836 1234.51 445.302 1226.58 C 454.186 1213.7 462.209 1200.02 469.782 1186.32 L 553.481 1025.07 C 562.12 1021.06 569.429 1015.56 577 1009.86 C 594.065 997.028 609.687 982.132 625.209 967.5 z"/>
<path transform="translate(0,0)" fill="rgb(255,255,255)" d="M 1415.79 959.506 C 1440.33 981.844 1469.18 1000.77 1490.35 1026.56 C 1508.7 1048.91 1519.51 1077.33 1532.23 1103.08 L 1563.75 1161.29 L 1606.49 1229.39 C 1610.41 1235.52 1615.91 1241.33 1619.32 1247.67 C 1620.89 1250.6 1621.4 1254.91 1622.01 1258.17 L 1625.99 1282.5 C 1628.21 1295.76 1630.61 1309.46 1634.7 1322.28 C 1637.55 1331.25 1642.01 1339.91 1645.91 1348.47 L 1664.81 1390.97 C 1667.46 1397.27 1671.44 1404.75 1672.24 1411.5 C 1672.92 1417.18 1670.94 1424.1 1669.9 1429.78 C 1668.01 1440.19 1666.71 1451.44 1663.17 1461.42 C 1662.98 1446.92 1667.64 1429.21 1663.73 1415.24 C 1661.21 1414.3 1661.09 1414.54 1658.5 1415.4 C 1655.71 1422.05 1656.94 1435.07 1656.24 1442.67 L 1649.7 1492.99 C 1648.01 1502.72 1646.44 1512.52 1643.09 1521.85 L 1643.9 1461.44 C 1643.77 1451.9 1644.08 1441.36 1642.21 1431.99 L 1640.5 1430.9 L 1637.97 1431.99 C 1637.29 1433.12 1636.63 1434.13 1636.49 1435.48 C 1635.8 1442.2 1636.91 1450.2 1636.92 1457.09 C 1636.95 1474.49 1636.68 1491.48 1635.2 1508.84 L 1628.98 1562.54 C 1625.46 1547.6 1624.9 1532.58 1623.79 1517.34 C 1622.5 1499.74 1620.87 1481.93 1617.69 1464.57 C 1615.85 1454.59 1614.24 1444.94 1609.57 1435.81 C 1604.07 1425.03 1594.16 1417.23 1587.36 1407.26 L 1580.55 1396.23 C 1580.03 1395.33 1578.57 1392.05 1577.83 1391.5 C 1577.17 1391.02 1576.28 1390.99 1575.5 1390.74 L 1573.24 1392.14 C 1572.49 1396.5 1576.14 1403.86 1577.59 1408.12 C 1574.91 1415.06 1574.67 1422.31 1573.9 1429.62 C 1571.73 1450.11 1565.42 1466.57 1552.25 1482.41 C 1556.91 1465.07 1559.63 1447.44 1559.2 1429.46 C 1558.85 1414.88 1557.24 1401.14 1558.94 1386.5 C 1560.6 1372.28 1565.31 1358.95 1572.6 1346.65 C 1574.88 1342.79 1577.35 1339.17 1580.08 1335.62 C 1581.79 1333.39 1584.56 1330.91 1585.02 1328.13 C 1585.5 1325.26 1584.87 1323.09 1583.1 1320.84 C 1577.73 1314.01 1575.04 1305.85 1571.56 1297.96 L 1556.97 1267.17 L 1534.25 1225.99 C 1530.62 1219.57 1525.29 1212.31 1523.17 1205.29 C 1519.4 1192.88 1518.34 1178.89 1515.75 1166.12 C 1510.52 1140.32 1502.38 1115.22 1491.48 1091.25 C 1483.65 1074.04 1473.68 1057.89 1462.02 1043 C 1448.55 1025.79 1432.83 1009.25 1423.53 989.22 C 1419.6 980.756 1418.31 968.696 1415.79 959.506 z"/>
<path transform="translate(0,0)" fill="rgb(255,255,255)" d="M 1165.44 1335.5 L 1166.44 1336.39 C 1170.34 1371.02 1176.4 1403.9 1187.06 1437.17 L 1197.37 1467.1 C 1199.7 1473.4 1202.78 1480.12 1204.06 1486.71 C 1206.31 1498.31 1206.43 1511.29 1207.1 1523.09 C 1208.91 1554.72 1209.53 1586.14 1207.04 1617.78 C 1203.35 1664.58 1193.03 1712.72 1171.76 1754.75 C 1169.34 1759.54 1166.55 1767.36 1162.5 1770.84 L 1160.79 1768.51 C 1150.85 1752.45 1140.21 1735.8 1132.78 1718.43 C 1119.37 1687.07 1114.78 1650.55 1113.09 1616.73 C 1111.83 1591.64 1112.01 1566.78 1113.12 1541.69 L 1124.73 1405.1 L 1126.36 1372.43 C 1126.42 1370.63 1126.07 1363.21 1126.65 1362.3 C 1128.44 1359.49 1141.45 1355.07 1145.24 1352.76 C 1153.07 1347.98 1159.31 1342.27 1165.44 1335.5 z"/>
<path transform="translate(0,0)" fill="rgb(255,255,255)" d="M 883.887 1337.27 C 894.32 1348.17 906.325 1356.77 920.616 1361.74 L 921.901 1362.17 L 930.301 1516.91 L 933.992 1585.68 C 935.557 1617.03 936.598 1648.12 929.645 1679 C 922.05 1712.72 906.36 1741.27 886.5 1769.26 C 885.317 1770.81 885.42 1770.92 883.5 1771.78 C 875.078 1749.59 862.7 1729.18 855.484 1706.52 C 838.629 1653.61 835.735 1592.16 838.267 1536.98 C 839.109 1518.63 840.226 1499.13 844.134 1481.19 C 846.148 1471.95 849.863 1462.8 852.936 1453.85 L 866.447 1412.51 C 874.018 1387.67 878.308 1362.56 883.887 1337.27 z"/>
<path transform="translate(0,0)" fill="rgb(255,255,255)" d="M 808.051 1180.44 C 815.849 1190.63 823.622 1200.65 829.5 1212.12 C 839.601 1231.84 844.535 1253.56 851.406 1274.48 C 855.466 1286.85 859.996 1299.16 865.826 1310.81 L 872.386 1323 C 873.005 1324.1 874.863 1326.58 875.082 1327.75 C 875.734 1331.21 872.906 1340.64 872.332 1344.54 C 864.424 1398.24 845.34 1448.44 826.485 1499 L 811.037 1539.97 C 801.442 1569.65 793.581 1599.95 790.699 1631.06 C 789.161 1641.04 789.307 1652.23 789.293 1662.35 L 773.5 1604.58 C 768.794 1586.52 765.207 1568.05 762.37 1549.61 C 750.476 1472.34 753.734 1395.25 766.21 1318.26 C 773.705 1272.02 785.553 1221.9 808.051 1180.44 z"/>
<path transform="translate(0,0)" fill="rgb(255,255,255)" d="M 1239.19 1181.5 L 1241.21 1181.54 C 1244.91 1187.94 1247.72 1195.03 1250.4 1201.92 C 1295.31 1317.26 1300.47 1444.84 1281.81 1566.31 C 1276.14 1603.27 1268.17 1643.27 1253.06 1677.6 C 1252.51 1674.99 1253.25 1671.13 1253.42 1668.42 L 1254.37 1649.75 C 1254.98 1640.96 1254.21 1631.63 1253.69 1622.82 C 1251.59 1587.84 1243.3 1554.56 1230.24 1522.11 L 1208.2 1470.33 C 1195.89 1437.52 1186.22 1403.72 1180.11 1369.19 L 1175.96 1338.28 C 1175.55 1334.08 1174.32 1328.6 1174.66 1324.46 C 1174.97 1320.71 1181.15 1313.58 1183.17 1310.07 C 1186.44 1304.42 1189.2 1298.42 1191.71 1292.41 C 1203.88 1263.26 1207.95 1231.55 1223.28 1203.61 C 1227.58 1195.77 1232.59 1187.62 1239.19 1181.5 z"/>
<path transform="translate(0,0)" fill="rgb(255,255,255)" d="M 716.427 637.944 L 717.143 638.948 C 723.47 647.994 725.187 658.854 726.855 669.587 C 731.534 699.681 731.54 732.762 726.278 762.776 C 723.298 779.77 717.809 796.505 711.995 812.717 C 693.598 864.019 664.709 908.052 628.591 948.454 C 607.055 972.545 583.564 994.775 557.082 1013.42 L 553.054 927.712 C 551.455 893.629 548.169 859.048 551.583 824.995 C 554.47 796.196 562.219 768.811 572.053 741.697 L 600.125 677.892 C 601.695 680.328 601.993 685.822 602.583 688.753 L 608.314 713.159 C 609.263 716.51 612.608 722.585 612.748 725.689 C 612.847 727.885 608.882 735.661 608.031 737.957 L 594.509 777.403 C 582.367 819.41 573.388 862.965 571.268 906.724 C 570.837 915.622 568.877 938.04 575 944.768 C 577.12 942.02 577.345 934.981 577.806 931.344 L 582.581 881.795 L 587.718 845.72 C 593.983 809.012 603.86 771.874 618.206 737.489 C 622.748 726.603 627.529 714.98 634.668 705.49 C 643.791 693.365 660.032 684.006 671.982 674.638 L 716.427 637.944 z"/>
<path transform="translate(0,0)" fill="rgb(255,255,255)" d="M 1327.68 636.769 L 1372.68 674.323 C 1396.98 696.158 1417.35 723.466 1430.8 753.265 C 1458.72 815.181 1462.3 888.378 1465.54 955.299 C 1469.31 943.628 1470.1 930.834 1470.59 918.665 C 1472.42 872.717 1463.8 823.121 1450.51 779.32 C 1446.15 764.942 1440.22 750.697 1434.3 736.886 C 1431.49 730.321 1433.44 722.563 1434.32 715.646 C 1436.12 701.562 1438.55 687.899 1441.78 674.076 C 1458.79 697.406 1471.38 725.881 1481.99 752.669 C 1494.61 788.015 1503.31 827.282 1502.47 865.013 C 1499.96 866.658 1497.07 868.292 1495.5 870.93 C 1493.86 873.675 1493.36 876.718 1493.29 879.87 C 1493.02 892.826 1495.87 905.469 1496.2 918.359 C 1496.86 945.002 1495.37 971.354 1497.51 998 C 1498.33 1008.14 1500.21 1017.99 1502.33 1027.92 C 1490.83 1013.56 1479.14 1000.3 1465.37 988.067 C 1440.26 965.774 1413.73 947.756 1392.64 921.033 C 1348.68 865.305 1317.29 787.19 1316.87 715.958 C 1316.81 707.186 1316.54 698.172 1317.63 689.456 L 1327.68 636.769 z"/>
<path transform="translate(0,0)" fill="rgb(255,255,255)" d="M 836.272 982.541 C 846.202 993.2 856.578 1004.02 867.641 1013.5 C 872.559 1017.72 880.578 1021.8 884.538 1026.53 C 886.239 1028.56 887.367 1032.35 888.454 1034.78 L 896.477 1052.61 C 902.572 1065.56 909.448 1079.12 917.453 1090.98 C 927.028 1105.18 938.851 1118.5 950.894 1130.65 C 961.133 1140.98 972.329 1151.11 981.29 1162.59 C 991.51 1175.69 998.971 1190.56 1005.65 1205.7 C 1008.89 1213.03 1014.66 1222.53 1015.93 1230.18 C 1016.68 1234.74 1016.34 1239.98 1016.45 1244.61 L 1016.73 1297.82 C 1016.67 1307.33 1017.46 1318.2 1015.57 1327.5 C 1014.79 1331.31 1012.82 1334.02 1010.1 1336.73 C 995.162 1351.6 974.773 1355.09 954.552 1355.47 C 927.055 1355.97 910.599 1349.61 891.012 1330.64 C 862.95 1302.29 857.88 1254.12 842.559 1218.55 C 835.242 1201.56 825.179 1186.13 812.846 1172.37 C 821.628 1150.6 836.761 1131.44 842.786 1108.61 C 845.581 1098.02 846.054 1086.96 846.888 1076.09 C 865.511 1098.22 889.652 1116.02 915.312 1129.07 C 896.046 1108.97 873.2 1092.76 854.981 1071.77 C 852.731 1069.17 848.933 1065.73 847.322 1062.78 C 846.747 1061.73 846.773 1058.37 846.635 1057 L 844.99 1039.5 C 843.18 1020.25 840.81 1001.37 836.272 982.541 z"/>
<path transform="translate(0,0)" fill="rgb(255,255,255)" d="M 1212.46 981.5 C 1212.81 982.5 1212.99 982.795 1213.02 984 C 1213.12 987.641 1211.71 992.312 1211.09 996.02 L 1207.15 1022.02 L 1203.42 1053.07 C 1203.21 1055.48 1203.64 1061.82 1202.78 1063.78 C 1202.09 1065.35 1197.12 1069.12 1195.68 1070.47 L 1146.87 1112.03 C 1140.87 1117.23 1135.32 1123.02 1129.79 1128.71 C 1139.12 1125.48 1148.87 1119.13 1157 1113.57 C 1172.82 1102.74 1187.13 1090.66 1201.07 1077.53 C 1201.8 1088.61 1203.41 1100.05 1207.17 1110.54 C 1214.62 1131.33 1227.64 1150 1235.93 1170.51 C 1192.12 1211.62 1198.67 1281.59 1159.96 1326.83 L 1158.31 1328.65 C 1143.26 1344.94 1125.43 1354.46 1103.09 1355.25 C 1079.32 1356.1 1053.43 1353.46 1035.68 1335.92 C 1033.34 1333.61 1032.24 1331.48 1031.65 1328.23 C 1029.6 1316.82 1030.94 1302.97 1030.91 1291.29 L 1030.85 1231.7 C 1031.06 1224.72 1037.08 1216.51 1040.32 1210.11 C 1048.29 1194.34 1055.51 1178.42 1066.43 1164.37 C 1085.99 1139.24 1110.37 1120.05 1127.97 1092.91 C 1135.17 1081.82 1141.4 1070.18 1147.05 1058.24 L 1156.07 1038.5 C 1157.66 1034.91 1159.28 1030.12 1161.74 1027.09 C 1167.48 1020.02 1177.06 1013.75 1184.04 1007.74 L 1212.46 981.5 z"/>
<path transform="translate(0,0)" fill="rgb(255,255,255)" d="M 1016.86 14.4073 C 1047.64 12.5821 1078.6 23.2826 1102.07 43.2199 C 1121.33 59.5849 1134.07 85.8746 1135.93 111 C 1136.63 120.414 1136.08 130.141 1134.95 139.5 C 1132.89 156.601 1127.82 173.421 1125.3 190.517 L 1121.11 226 C 1120.36 234.378 1120.18 242.999 1117.83 251.129 C 1113.84 264.955 1107.07 277.591 1097.5 288.357 C 1080.21 307.812 1056.13 309.492 1031.72 310.938 C 1008.73 311.143 975.598 311.707 956.913 296.307 C 942.894 284.753 931.352 263.71 927.204 246.123 C 925.827 240.284 925.726 233.706 925.156 227.703 L 920.993 191.5 C 917.527 170.541 911.947 149.824 910.057 128.656 C 907.671 101.939 916.823 74.7205 934.111 54.3377 C 954.923 29.7994 985.217 17.0811 1016.86 14.4073 z"/>
<path transform="translate(0,0)" fill="rgb(255,255,255)" d="M 954.421 2048 C 960.131 2017.38 966.181 1988.81 965.589 1957.41 C 965.417 1948.31 965.421 1938.88 963.269 1930 L 962.907 1928.44 C 958.845 1911.71 950.254 1895.83 946.779 1879.06 C 942.665 1859.21 940.973 1838.3 939.91 1818.06 C 938.936 1799.53 938.26 1780.77 941.559 1762.43 C 948.487 1723.92 967.08 1687.67 980.886 1651.29 C 991.374 1623.66 998.336 1595.86 1003.64 1566.81 C 1012.22 1519.88 1014.98 1470.6 1018.59 1423 C 1020.11 1403.11 1020.12 1382.52 1023.82 1362.9 C 1031.12 1434.03 1025.17 1505.68 1042.09 1575.87 C 1051.3 1614.07 1067.96 1650.86 1082.47 1687.27 C 1092.88 1713.38 1104.26 1741.25 1106.69 1769.5 C 1108.72 1793.01 1107.39 1817.91 1105.64 1841.44 C 1104.84 1852.28 1104.48 1863.58 1101.66 1874.12 C 1096.2 1894.54 1086.53 1914.75 1083.58 1935.78 C 1078.38 1972.86 1085.15 2011.6 1091.81 2048 L 954.421 2048 z"/>
<path transform="translate(0,0)" fill="rgb(255,255,255)" d="M 775.725 2048 L -0 2048 L -0 -0 L 1002.36 0 C 963.495 9.98895 931.275 24.7645 909.837 60.8203 C 897.7 81.232 893.284 103.351 894.565 126.908 L 896.486 148.679 C 896.658 150.041 897.86 156.374 897.56 156.909 C 897.346 157.29 896.768 157.277 896.375 157.466 C 891.231 159.941 887.167 162.368 885.232 168 C 882.855 174.917 883.575 182.699 884.504 189.829 C 886.584 205.798 890.798 222.948 898.092 237.394 C 900.903 242.962 905.06 245.719 910.48 248.407 C 911.224 248.776 914.4 249.947 914.834 250.49 C 916.202 252.206 917.338 257.919 918.105 260.184 C 919.689 264.86 922.919 271.071 923.221 275.972 C 923.596 282.076 922.861 288.888 922.56 295.035 C 922.028 305.931 921.509 317.236 920.027 328.039 C 917.809 344.209 914.318 359.924 912.741 376.258 C 893.848 390.496 873.52 402.549 853.064 414.382 C 830.259 427.575 806.636 440.725 782 450.132 C 759.176 458.848 735.751 458.73 712.646 465.115 C 698.47 469.033 684.909 475.835 672.056 482.853 C 633.238 504.05 597.882 534.774 591.57 580.969 C 589.27 597.8 590.398 616.775 591.938 633.638 C 592.494 639.723 594.688 648.122 594.171 653.924 C 593.712 659.065 587.725 667.832 585.286 672.792 C 569.165 705.575 554.083 739.883 545.314 775.45 C 540.411 795.333 537.419 815.419 536.055 835.848 C 535.581 842.94 535.181 850.108 535.36 857.219 C 535.611 867.167 538.394 879.903 533.5 888.72 C 527.181 900.104 521.832 911.688 514.551 922.574 C 491.412 957.17 463.475 987.771 448.675 1027.47 C 437.521 1057.38 434.085 1089.48 429.951 1120.94 L 412.349 1250.61 C 409.361 1271.66 407.595 1294.46 402.403 1315.08 C 400.366 1323.16 394.737 1331.59 390.948 1339.11 C 378.992 1362.84 363.554 1391.48 360.765 1418.14 C 360.161 1423.91 362.761 1428.97 363.889 1434.5 C 367.659 1452.97 370.078 1471.38 375.784 1489.46 C 379.343 1500.74 383.263 1512.55 388.559 1523.15 C 390.696 1527.44 392.781 1531.84 395.247 1535.94 C 396.708 1538.37 400.122 1541.68 400.513 1544.34 C 402.256 1556.18 398.85 1579 408.5 1586.98 C 411.921 1588.03 414.227 1588.06 417.543 1586.5 C 424.492 1583.22 427.914 1572.94 429.98 1565.98 C 436.469 1544.11 433.771 1520.13 435.407 1497.64 C 436.492 1482.74 439.962 1468.1 444.689 1453.96 C 448.889 1441.4 454.145 1429.28 462.569 1418.91 C 463.105 1438.14 462.887 1465.84 478.127 1479.91 C 482.65 1484.09 488.745 1486.83 495 1486.26 C 497.885 1486 500.65 1484.76 502.5 1482.46 C 504.294 1480.24 505.094 1477.31 504.675 1474.5 C 503.536 1466.87 501.142 1459.68 500.945 1451.89 C 500.389 1429.83 505.806 1406.37 501.631 1384.62 C 499.163 1371.77 495.352 1359.81 490.049 1347.83 L 482.264 1330.97 C 481.399 1329.1 479.197 1325.06 479.246 1323.06 C 479.274 1321.92 480.954 1318.63 481.438 1317.46 C 483.578 1312.25 486.117 1307.26 488.709 1302.27 C 514.464 1252.7 545.614 1206.82 574.305 1159.05 C 585.441 1140.51 596.396 1122.02 605.703 1102.47 C 628.02 1055.59 632.651 1006.49 642.814 956.439 C 644.018 950.508 662.127 932.084 666.685 926.171 L 685.02 900.129 C 705.132 869.444 720.383 836.574 731.679 801.692 C 743.49 824.085 757.165 845.149 771.139 866.228 C 779.495 878.832 788.87 891.477 795.672 904.987 C 803.438 920.413 807.569 937.079 812.014 953.663 C 819.414 981.274 825.035 1009.15 828.511 1037.54 C 831.329 1060.55 833.54 1086.49 826.697 1108.99 C 821.792 1125.12 810.669 1140.2 802.648 1155.05 C 792.832 1173.21 784.419 1192.35 777.336 1211.73 C 767.582 1238.41 760.875 1265.85 755.047 1293.63 C 732.198 1402.51 734.849 1516.28 759.5 1624.61 L 781.389 1706.73 C 790.065 1737.09 801.568 1771.29 801.838 1803 C 802.003 1822.46 793.898 1842.3 787.086 1860.23 C 780.149 1878.5 772.806 1896.99 768.361 1916.04 C 757.958 1960.64 764.834 2004.24 775.725 2048 z"/>
</svg>